<?xml version="1.0" encoding="utf-8"?>
<!-- Generator: Adobe Illustrator 24.0.0, SVG Export Plug-In . SVG Version: 6.00 Build 0)  -->
<svg version="1.1" id="Layer_1" xmlns="http://www.w3.org/2000/svg" xmlns:xlink="http://www.w3.org/1999/xlink" x="0px" y="0px"
	 viewBox="0 0 34 34" style="enable-background:new 0 0 34 34;" xml:space="preserve">
<style type="text/css">
	.st0{fill:none;stroke:#292F3D;stroke-width:3;stroke-linecap:round;stroke-linejoin:round;}
	.st1{fill:#FE6732;}
</style>
<g transform="translate(-1.75 -1.75)">
	<path class="st0" d="M11.1,3.4h15.4c4.2,0,7.7,3.4,7.7,7.7v15.4c0,4.2-3.4,7.7-7.7,7.7H11.1c-4.3-0.1-7.7-3.5-7.7-7.8V11.1
		C3.4,6.8,6.8,3.4,11.1,3.4z"/>
	<path class="st0" d="M25,17.8c0.5,3.3-1.9,6.4-5.2,7c-3.3,0.5-6.4-1.9-7-5.2c-0.5-3.3,1.9-6.4,5.2-7c0.6-0.1,1.2-0.1,1.8,0
		C22.4,13,24.5,15.1,25,17.8z"/>
	<circle class="st1" cx="27.2" cy="9.7" r="1.8"/>
</g>
</svg>
