<svg xmlns="http://www.w3.org/2000/svg" width="34" height="34" viewBox="0 0 34 34"><defs><style>.a{fill:none;stroke:#f6f6f6;stroke-linecap:round;stroke-linejoin:round;stroke-width:2.5px;}.b{fill:#fff;}</style></defs><g transform="translate(-1.75 -1.75)"><path class="a" d="M10.875,3h15.75A7.875,7.875,0,0,1,34.5,10.875v15.75A7.875,7.875,0,0,1,26.625,34.5H10.875A7.875,7.875,0,0,1,3,26.625V10.875A7.875,7.875,0,0,1,10.875,3Z" transform="translate(0 0)"/><path class="a" d="M24.6,17.311A6.3,6.3,0,1,1,19.289,12,6.3,6.3,0,0,1,24.6,17.311Z" transform="translate(0.453 0.447)"/><circle class="b" cx="1.5" cy="1.5" r="1.5" transform="translate(25.9 8)"/></g></svg>