<?xml version="1.0" encoding="utf-8"?>
<!-- Generator: Adobe Illustrator 24.0.0, SVG Export Plug-In . SVG Version: 6.00 Build 0)  -->
<svg version="1.1" id="Layer_1" xmlns="http://www.w3.org/2000/svg" xmlns:xlink="http://www.w3.org/1999/xlink" x="0px" y="0px"
	 viewBox="0 0 34 34" style="enable-background:new 0 0 34 34;" xml:space="preserve">
<style type="text/css">
	.st0{fill:none;stroke:#292F3D;stroke-width:3;stroke-linecap:round;stroke-linejoin:round;}
	.st1{fill:#FE6732;}
</style>
<g transform="translate(-1.75 -1.75)">
	<path class="st0" d="M10.9,3h15.8c4.3,0,7.9,3.5,7.9,7.9v15.8c0,4.3-3.5,7.9-7.9,7.9H10.9C6.5,34.5,3,31,3,26.6V10.9
		C3,6.5,6.5,3,10.9,3z"/>
	<path class="st0" d="M25.1,17.8c0.5,3.4-1.9,6.6-5.3,7.2c-3.4,0.5-6.6-1.9-7.2-5.3c-0.5-3.4,1.9-6.6,5.3-7.2c0.6-0.1,1.2-0.1,1.8,0
		C22.5,12.9,24.6,15,25.1,17.8z"/>
	<circle class="st1" cx="27.4" cy="9.5" r="1.8"/>
</g>
</svg>
