<?xml version="1.0" encoding="utf-8"?>
<!-- Generator: Adobe Illustrator 24.0.0, SVG Export Plug-In . SVG Version: 6.00 Build 0)  -->
<svg version="1.1" id="Layer_1" xmlns="http://www.w3.org/2000/svg" xmlns:xlink="http://www.w3.org/1999/xlink" x="0px" y="0px"
	 viewBox="0 0 339 71" style="enable-background:new 0 0 339 71;" xml:space="preserve">
<style type="text/css">
	.st0{enable-background:new    ;}
	.st1{fill:#FFFFFF;}
</style>
<g transform="translate(-1427 502)">
	<g class="st0">
		<path class="st1" d="M1705.7-467c0-5.5,1.1-9.9,3.3-13.1c2.2-3.2,5.8-4.8,10.7-4.8c4.9,0,8.4,1.6,10.7,4.8s3.4,7.6,3.4,13.1
			c0,5.5-1.1,9.9-3.4,13.1c-2.3,3.2-5.8,4.9-10.7,4.9c-4.9,0-8.5-1.6-10.7-4.9C1706.8-457.1,1705.7-461.5,1705.7-467z M1725.3-467
			c0-3.2-0.4-5.6-1.1-7.3c-0.8-1.7-2.2-2.5-4.4-2.5c-2.2,0-3.7,0.8-4.5,2.5c-0.8,1.7-1.2,4.1-1.2,7.3c0,3.2,0.4,5.6,1.2,7.3
			c0.8,1.7,2.3,2.6,4.5,2.6c2.2,0,3.7-0.9,4.4-2.6S1725.3-463.9,1725.3-467z"/>
		<path class="st1" d="M1757.2-484.6c1.8,0.8,3.1,2,4,3.5c0.9,1.5,1.4,3.2,1.4,5c0,2.3-0.6,4.1-1.8,5.5c-1.2,1.4-2.7,2.3-4.4,2.6
			v0.3c4.6,1.5,6.9,4.3,6.9,8.6c0,2-0.5,3.8-1.4,5.4c-0.9,1.6-2.3,2.8-4.1,3.7s-3.9,1.3-6.4,1.3c-4.1,0-7.3-1-9.7-3
			c-2.4-2-3.7-5-3.9-9.1h8.3c0.1,1.6,0.5,2.8,1.3,3.7c0.8,0.9,2,1.3,3.5,1.3c1.2,0,2.2-0.4,2.9-1.1c0.7-0.7,1.1-1.7,1.1-2.9
			c0-2.9-2.1-4.3-6.3-4.3h-1.6v-7h1.5c3.8,0.1,5.7-1.3,5.7-4c0-1.2-0.3-2.1-1-2.8c-0.6-0.6-1.5-1-2.6-1c-1.2,0-2.1,0.4-2.8,1.2
			c-0.7,0.8-1.1,1.9-1.2,3.3h-8.3c0.2-3.7,1.3-6.6,3.5-8.6c2.2-2,5.2-3,9.1-3C1753.3-485.9,1755.4-485.5,1757.2-484.6z"/>
	</g>
	<g class="st0">
		<path class="st1" d="M1454.4-480.3v28.3h-6.9v-11.8h-10.7v11.8h-6.8v-28.3h6.8v11h10.7v-11H1454.4z"/>
		<path class="st1" d="M1475.5-473.2c1.7,0.9,3.1,2.2,4.1,4c1,1.7,1.5,3.8,1.5,6.1s-0.5,4.3-1.5,6.1s-2.4,3.1-4.1,4
			c-1.7,0.9-3.7,1.4-5.9,1.4s-4.2-0.5-6-1.4c-1.8-0.9-3.1-2.2-4.1-4s-1.5-3.8-1.5-6.1s0.5-4.3,1.5-6.1c1-1.7,2.4-3.1,4.1-4
			c1.8-0.9,3.7-1.4,6-1.4S1473.8-474.1,1475.5-473.2z M1466.3-467.3c-0.9,0.9-1.3,2.3-1.3,4.1c0,1.8,0.4,3.1,1.3,4.1
			c0.9,0.9,2,1.4,3.3,1.4s2.4-0.5,3.3-1.4c0.9-0.9,1.3-2.3,1.3-4.1c0-1.8-0.4-3.2-1.3-4.1s-2-1.4-3.3-1.4S1467.2-468.2,1466.3-467.3
			z"/>
		<path class="st1" d="M1517.3-474.3l-5.7,22.3h-7.6l-4-15l-4.1,15h-7.6l-5.7-22.3h6.8l3,16.1l4.2-16.1h7.3l4.3,16.1l3-16.1H1517.3z
			"/>
		<path class="st1" d="M1540.4-457.9v5.9h-3.1c-2.6,0-4.6-0.6-6.1-1.9c-1.5-1.3-2.2-3.4-2.2-6.4v-8.2h-3v-5.8h3v-5.5h6.8v5.5h4.5
			v5.8h-4.5v8.3c0,0.9,0.2,1.5,0.5,1.8c0.4,0.3,1,0.5,1.8,0.5H1540.4z"/>
		<path class="st1" d="M1560.7-473.2c1.7,0.9,3.1,2.2,4.1,4c1,1.7,1.5,3.8,1.5,6.1s-0.5,4.3-1.5,6.1s-2.4,3.1-4.1,4
			c-1.7,0.9-3.7,1.4-5.9,1.4s-4.2-0.5-6-1.4c-1.8-0.9-3.1-2.2-4.1-4s-1.5-3.8-1.5-6.1s0.5-4.3,1.5-6.1c1-1.7,2.4-3.1,4.1-4
			c1.8-0.9,3.7-1.4,6-1.4S1558.9-474.1,1560.7-473.2z M1551.4-467.3c-0.9,0.9-1.3,2.3-1.3,4.1c0,1.8,0.4,3.1,1.3,4.1
			c0.9,0.9,2,1.4,3.3,1.4s2.4-0.5,3.3-1.4c0.9-0.9,1.3-2.3,1.3-4.1c0-1.8-0.4-3.2-1.3-4.1s-2-1.4-3.3-1.4S1552.3-468.2,1551.4-467.3
			z"/>
		<path class="st1" d="M1584.7-461.9v9.9h-6.8v-28.3h11.1c3.4,0,5.9,0.8,7.7,2.5c1.8,1.7,2.6,3.9,2.6,6.7c0,1.8-0.4,3.3-1.2,4.7
			c-0.8,1.4-2,2.5-3.5,3.2c-1.5,0.8-3.4,1.2-5.6,1.2H1584.7z M1592.3-471c0-2.5-1.4-3.7-4.1-3.7h-3.5v7.4h3.5
			C1590.9-467.4,1592.3-468.6,1592.3-471z"/>
		<path class="st1" d="M1609.4-481.6v29.6h-6.8v-29.6H1609.4z"/>
		<path class="st1" d="M1627-473.4c1.2,0.8,2.1,1.8,2.7,3.2v-4h6.8v22.3h-6.8v-4c-0.6,1.3-1.5,2.4-2.7,3.2c-1.2,0.8-2.7,1.2-4.4,1.2
			c-1.8,0-3.5-0.5-4.9-1.4s-2.6-2.2-3.4-4s-1.3-3.8-1.3-6.1c0-2.3,0.4-4.4,1.3-6.1c0.8-1.7,2-3,3.4-4s3.1-1.4,4.9-1.4
			C1624.3-474.6,1625.8-474.2,1627-473.4z M1621.3-467.2c-0.9,1-1.3,2.3-1.3,4c0,1.7,0.4,3,1.3,4c0.9,1,2.1,1.4,3.5,1.4
			c1.4,0,2.6-0.5,3.5-1.5c0.9-1,1.4-2.3,1.4-4c0-1.7-0.5-3-1.4-4s-2.1-1.5-3.5-1.5C1623.4-468.6,1622.2-468.1,1621.3-467.2z"/>
		<path class="st1" d="M1646.4-474.3l5.4,13.7l5-13.7h7.6l-13.9,33h-7.5l5.2-11.5l-9.4-21.5H1646.4z"/>
		<path class="st1" d="M1690.2-468.9v5.7h-17.6v-5.7H1690.2z"/>
	</g>
</g>
</svg>
