<?xml version="1.0" encoding="utf-8"?>
<!-- Generator: Adobe Illustrator 24.0.0, SVG Export Plug-In . SVG Version: 6.00 Build 0)  -->
<svg version="1.1" id="Layer_1" xmlns="http://www.w3.org/2000/svg" xmlns:xlink="http://www.w3.org/1999/xlink" x="0px" y="0px"
	 viewBox="0 0 212 71" style="enable-background:new 0 0 212 71;" xml:space="preserve">
<style type="text/css">
	.st0{enable-background:new    ;}
	.st1{fill:#FFFFFF;}
</style>
<g transform="translate(-1554 668)">
	<g class="st0">
		<path class="st1" d="M1718.1-633c0-5.5,1.1-9.9,3.4-13.1c2.2-3.2,5.8-4.8,10.7-4.8c4.9,0,8.4,1.6,10.7,4.8s3.4,7.6,3.4,13.1
			c0,5.5-1.1,9.9-3.4,13.1c-2.3,3.2-5.8,4.9-10.7,4.9c-4.9,0-8.5-1.6-10.7-4.9C1719.2-623.1,1718.1-627.5,1718.1-633z M1737.7-633
			c0-3.2-0.4-5.6-1.1-7.3c-0.8-1.7-2.2-2.5-4.4-2.5c-2.2,0-3.7,0.8-4.5,2.5c-0.8,1.7-1.2,4.1-1.2,7.3c0,3.2,0.4,5.6,1.2,7.3
			c0.8,1.7,2.3,2.6,4.5,2.6c2.2,0,3.7-0.9,4.4-2.6S1737.7-629.9,1737.7-633z"/>
		<path class="st1" d="M1748.8-642.3v-8h14.3v35.3h-9v-27.3H1748.8z"/>
	</g>
	<g class="st0">
		<path class="st1" d="M1581.3-646.3v28.3h-6.9v-11.8h-10.7v11.8h-6.8v-28.3h6.8v11h10.7v-11H1581.3z"/>
		<path class="st1" d="M1602.4-639.2c1.7,0.9,3.1,2.2,4.1,4c1,1.7,1.5,3.8,1.5,6.1s-0.5,4.3-1.5,6.1s-2.4,3.1-4.1,4
			c-1.7,0.9-3.7,1.4-5.9,1.4s-4.2-0.5-6-1.4c-1.8-0.9-3.1-2.2-4.1-4s-1.5-3.8-1.5-6.1s0.5-4.3,1.5-6.1c1-1.7,2.4-3.1,4.1-4
			c1.8-0.9,3.7-1.4,6-1.4S1600.6-640.1,1602.4-639.2z M1593.1-633.3c-0.9,0.9-1.3,2.3-1.3,4.1c0,1.8,0.4,3.1,1.3,4.1
			c0.9,0.9,2,1.4,3.3,1.4s2.4-0.5,3.3-1.4c0.9-0.9,1.3-2.3,1.3-4.1c0-1.8-0.4-3.2-1.3-4.1s-2-1.4-3.3-1.4S1594-634.2,1593.1-633.3z"
			/>
		<path class="st1" d="M1647-638c1.6,1.7,2.4,4,2.4,7.1v13h-6.8v-12.2c0-1.4-0.4-2.5-1.1-3.3c-0.8-0.8-1.8-1.2-3.1-1.2
			c-1.4,0-2.4,0.4-3.2,1.3s-1.2,2-1.2,3.5v11.8h-6.8v-12.2c0-1.4-0.4-2.5-1.1-3.3c-0.7-0.8-1.8-1.2-3.1-1.2c-1.4,0-2.4,0.4-3.2,1.2
			c-0.8,0.8-1.2,2-1.2,3.6v11.8h-6.8v-22.3h6.8v3.8c0.6-1.3,1.5-2.2,2.7-3c1.2-0.7,2.6-1.1,4.3-1.1c1.7,0,3.2,0.4,4.5,1.2
			c1.3,0.8,2.3,1.9,3,3.4c0.8-1.4,1.8-2.5,3.2-3.3c1.3-0.8,2.8-1.2,4.5-1.2C1643.2-640.6,1645.4-639.7,1647-638z"/>
		<path class="st1" d="M1674.9-627.9h-15.5c0.1,1.7,0.5,2.9,1.3,3.6c0.8,0.7,1.8,1.1,3,1.1c1,0,1.9-0.3,2.5-0.8
			c0.7-0.5,1.1-1.2,1.3-2h7.2c-0.3,1.6-0.9,3-1.9,4.2s-2.2,2.2-3.8,2.9c-1.5,0.7-3.2,1.1-5.1,1.1c-2.2,0-4.1-0.5-5.8-1.4
			c-1.7-0.9-3-2.2-4-4s-1.4-3.8-1.4-6.1c0-2.3,0.5-4.4,1.4-6.1c0.9-1.7,2.3-3,4-4c1.7-0.9,3.7-1.4,5.8-1.4c2.2,0,4.2,0.5,5.8,1.4
			c1.7,0.9,3,2.2,3.9,3.8s1.4,3.5,1.4,5.7C1675.1-629.2,1675-628.6,1674.9-627.9z M1667-634.1c-0.8-0.7-1.8-1.1-3-1.1
			c-1.3,0-2.3,0.4-3.1,1.1c-0.8,0.7-1.3,1.8-1.4,3.3h8.7C1668.2-632.3,1667.8-633.4,1667-634.1z"/>
		<path class="st1" d="M1702.2-634.9v5.7h-17.6v-5.7H1702.2z"/>
	</g>
</g>
</svg>
