<?xml version="1.0" encoding="utf-8"?>
<!-- Generator: Adobe Illustrator 24.0.0, SVG Export Plug-In . SVG Version: 6.00 Build 0)  -->
<svg version="1.1" id="Layer_1" xmlns="http://www.w3.org/2000/svg" xmlns:xlink="http://www.w3.org/1999/xlink" x="0px" y="0px"
	 viewBox="0 0 343 71" style="enable-background:new 0 0 343 71;" xml:space="preserve">
<style type="text/css">
	.st0{enable-background:new    ;}
	.st1{fill:#FFFFFF;}
</style>
<g transform="translate(-1427 502)">
	<g class="st0">
		<path class="st1" d="M1709.7-469.7c0-5.5,1.1-9.9,3.3-13.1c2.2-3.2,5.8-4.8,10.7-4.8c4.9,0,8.4,1.6,10.7,4.8s3.4,7.6,3.4,13.1
			s-1.1,9.9-3.4,13.1s-5.8,4.9-10.7,4.9c-4.9,0-8.5-1.6-10.7-4.9C1710.8-459.8,1709.7-464.2,1709.7-469.7z M1729.3-469.7
			c0-3.2-0.4-5.6-1.1-7.3c-0.8-1.7-2.2-2.5-4.4-2.5c-2.2,0-3.7,0.8-4.5,2.5s-1.2,4.1-1.2,7.3c0,3.2,0.4,5.6,1.2,7.3
			c0.8,1.7,2.3,2.6,4.5,2.6s3.7-0.9,4.4-2.6S1729.3-466.6,1729.3-469.7z"/>
		<path class="st1" d="M1761.2-487.3c1.8,0.8,3.1,2,4,3.5s1.4,3.2,1.4,5c0,2.3-0.6,4.1-1.8,5.5c-1.2,1.4-2.7,2.3-4.4,2.6v0.3
			c4.6,1.5,6.9,4.3,6.9,8.6c0,2-0.5,3.8-1.4,5.4s-2.3,2.8-4.1,3.7s-3.9,1.3-6.4,1.3c-4.1,0-7.3-1-9.7-3c-2.4-2-3.7-5-3.9-9.1h8.3
			c0.1,1.6,0.5,2.8,1.3,3.7c0.8,0.9,2,1.3,3.5,1.3c1.2,0,2.2-0.4,2.9-1.1c0.7-0.7,1.1-1.7,1.1-2.9c0-2.9-2.1-4.3-6.3-4.3h-1.6v-7
			h1.5c3.8,0.1,5.7-1.3,5.7-4c0-1.2-0.3-2.1-1-2.8c-0.6-0.6-1.5-1-2.6-1c-1.2,0-2.1,0.4-2.8,1.2c-0.7,0.8-1.1,1.9-1.2,3.3h-8.3
			c0.2-3.7,1.3-6.6,3.5-8.6s5.2-3,9.1-3C1757.3-488.6,1759.4-488.2,1761.2-487.3z"/>
	</g>
	<g>
		<path class="st1" d="M1451.2-477.2c2.3,1.7,3.7,4.1,4.3,7h-7.2c-0.5-1-1.2-1.8-2.2-2.4c-1-0.6-2.2-0.9-3.5-0.9
			c-2.1,0-3.9,0.7-5.2,2.2c-1.3,1.4-1.9,3.4-1.9,5.9c0,2.7,0.7,4.7,2,6.2c1.4,1.4,3.3,2.1,5.8,2.1c1.6,0,3-0.4,4.3-1.3
			c1.2-0.9,2.1-2.2,2.6-3.8h-8.6v-4.9h14.3v6.7c-0.5,1.6-1.4,3.2-2.5,4.6c-1.2,1.4-2.7,2.5-4.5,3.4c-1.8,0.9-3.9,1.3-6.2,1.3
			c-2.8,0-5.3-0.6-7.4-1.8c-2.1-1.2-3.8-2.9-4.9-5.1c-1.2-2.2-1.7-4.7-1.7-7.4c0-2.8,0.6-5.3,1.7-7.4c1.2-2.2,2.8-3.9,4.9-5.1
			c2.1-1.2,4.6-1.8,7.4-1.8C1446-479.8,1448.9-479,1451.2-477.2z"/>
		<path class="st1" d="M1472.4-472.7c1.2,0.8,2.1,1.8,2.7,3.1v-4h6.8v22.2h-6.8v-4c-0.6,1.3-1.5,2.4-2.7,3.1
			c-1.2,0.8-2.7,1.2-4.4,1.2c-1.8,0-3.5-0.5-4.9-1.4c-1.4-0.9-2.6-2.2-3.4-4c-0.8-1.7-1.3-3.7-1.3-6c0-2.3,0.4-4.4,1.3-6.1
			s2-3,3.4-3.9c1.4-0.9,3.1-1.4,4.9-1.4C1469.8-473.9,1471.2-473.5,1472.4-472.7z M1466.7-466.5c-0.9,1-1.3,2.3-1.3,4
			c0,1.7,0.4,3,1.3,4c0.9,1,2.1,1.4,3.5,1.4c1.4,0,2.6-0.5,3.5-1.5c0.9-1,1.4-2.3,1.4-3.9c0-1.7-0.5-3-1.4-4c-0.9-1-2.1-1.5-3.5-1.5
			C1468.8-467.9,1467.6-467.5,1466.7-466.5z"/>
		<path class="st1" d="M1521.8-471.3c1.6,1.7,2.3,4,2.3,7v12.9h-6.8v-12.1c0-1.4-0.4-2.5-1.1-3.3c-0.8-0.8-1.8-1.2-3.1-1.2
			c-1.4,0-2.4,0.4-3.2,1.3c-0.8,0.8-1.2,2-1.2,3.5v11.8h-6.8v-12.1c0-1.4-0.4-2.5-1.1-3.3c-0.7-0.8-1.8-1.2-3.1-1.2
			c-1.4,0-2.4,0.4-3.2,1.2s-1.2,2-1.2,3.5v11.8h-6.8v-22.2h6.8v3.8c0.6-1.2,1.5-2.2,2.7-2.9c1.2-0.7,2.6-1.1,4.2-1.1
			c1.7,0,3.2,0.4,4.5,1.2c1.3,0.8,2.3,1.9,2.9,3.4c0.8-1.4,1.8-2.5,3.2-3.3c1.3-0.8,2.8-1.2,4.4-1.2
			C1518.1-473.9,1520.2-473,1521.8-471.3z"/>
		<path class="st1" d="M1549.5-461.3h-15.4c0.1,1.7,0.5,2.9,1.3,3.6c0.8,0.7,1.7,1.1,2.9,1.1c1,0,1.8-0.3,2.5-0.8
			c0.7-0.5,1.1-1.2,1.3-1.9h7.2c-0.3,1.6-0.9,3-1.9,4.2c-1,1.2-2.2,2.2-3.7,2.9c-1.5,0.7-3.2,1.1-5,1.1c-2.2,0-4.1-0.5-5.8-1.4
			c-1.7-0.9-3-2.2-4-4c-1-1.7-1.4-3.7-1.4-6c0-2.3,0.5-4.4,1.4-6.1c0.9-1.7,2.3-3,4-3.9c1.7-0.9,3.6-1.4,5.8-1.4
			c2.2,0,4.1,0.5,5.8,1.4c1.7,0.9,3,2.2,3.9,3.8s1.4,3.5,1.4,5.6C1549.7-462.6,1549.7-462,1549.5-461.3z M1541.7-467.4
			c-0.8-0.7-1.8-1.1-3-1.1c-1.2,0-2.3,0.4-3.1,1.1c-0.8,0.7-1.3,1.8-1.4,3.3h8.7C1542.9-465.6,1542.5-466.7,1541.7-467.4z"/>
		<path class="st1" d="M1575.7-451.4l-6.1-10.6h-1.6v10.6h-6.8v-28.1h11.6c2.2,0,4.1,0.4,5.6,1.2c1.5,0.8,2.7,1.8,3.5,3.2
			c0.8,1.3,1.2,2.9,1.2,4.6c0,2-0.6,3.8-1.7,5.2c-1.1,1.4-2.8,2.4-4.9,2.9l6.7,11.1H1575.7z M1568-466.7h4.2c1.4,0,2.3-0.3,3-0.9
			c0.6-0.6,1-1.5,1-2.6c0-1.1-0.3-2-1-2.6c-0.6-0.6-1.6-1-3-1h-4.2V-466.7z"/>
		<path class="st1" d="M1608.6-473.6v22.2h-6.8v-4c-0.6,1.3-1.6,2.3-2.8,3.1c-1.3,0.8-2.7,1.2-4.4,1.2c-2.5,0-4.6-0.8-6.1-2.5
			c-1.5-1.7-2.2-4-2.2-7v-12.9h6.8v12c0,1.5,0.4,2.7,1.2,3.5c0.8,0.8,1.8,1.3,3.2,1.3c1.4,0,2.5-0.4,3.3-1.3
			c0.8-0.9,1.2-2.1,1.2-3.7v-11.8H1608.6z"/>
		<path class="st1" d="M1620.1-480.9v29.4h-6.8v-29.4H1620.1z"/>
		<path class="st1" d="M1645.7-461.3h-15.4c0.1,1.7,0.5,2.9,1.3,3.6c0.8,0.7,1.8,1.1,2.9,1.1c1,0,1.8-0.3,2.5-0.8
			c0.7-0.5,1.1-1.2,1.3-1.9h7.2c-0.3,1.6-0.9,3-1.9,4.2c-1,1.2-2.2,2.2-3.7,2.9c-1.5,0.7-3.2,1.1-5,1.1c-2.2,0-4.1-0.5-5.8-1.4
			c-1.7-0.9-3-2.2-4-4c-1-1.7-1.4-3.7-1.4-6c0-2.3,0.5-4.4,1.4-6.1c0.9-1.7,2.3-3,4-3.9s3.6-1.4,5.8-1.4c2.2,0,4.1,0.5,5.8,1.4
			c1.7,0.9,3,2.2,3.9,3.8c0.9,1.6,1.4,3.5,1.4,5.6C1645.9-462.6,1645.8-462,1645.7-461.3z M1637.8-467.4c-0.8-0.7-1.8-1.1-3-1.1
			c-1.2,0-2.3,0.4-3.1,1.1c-0.8,0.7-1.3,1.8-1.4,3.3h8.7C1639-465.6,1638.6-466.7,1637.8-467.4z"/>
		<path class="st1" d="M1664.2-471.8c1.7,1.4,2.7,3.3,3.2,5.6h-6.4c-0.2-0.9-0.6-1.6-1.3-2.1c-0.6-0.5-1.5-0.8-2.4-0.8
			c-0.8,0-1.4,0.2-1.7,0.5c-0.4,0.3-0.6,0.8-0.6,1.4c0,0.7,0.4,1.2,1.1,1.6c0.7,0.3,1.9,0.7,3.4,1c1.7,0.4,3.1,0.8,4.2,1.2
			s2,1.1,2.8,2c0.8,0.9,1.2,2.2,1.2,3.7c0,1.3-0.3,2.4-1,3.4c-0.7,1-1.7,1.7-3,2.3s-2.8,0.8-4.6,0.8c-3,0-5.4-0.7-7.2-2
			c-1.8-1.3-2.9-3.2-3.3-5.7h6.6c0.1,1,0.5,1.7,1.2,2.2c0.7,0.5,1.6,0.8,2.7,0.8c0.8,0,1.4-0.2,1.7-0.5c0.4-0.4,0.6-0.8,0.6-1.4
			c0-0.8-0.4-1.3-1.1-1.7c-0.7-0.3-1.9-0.7-3.6-1.1c-1.6-0.3-3-0.7-4.1-1.1c-1.1-0.4-2-1-2.7-1.9c-0.8-0.9-1.2-2.1-1.2-3.6
			c0-2,0.8-3.6,2.3-4.8c1.5-1.2,3.6-1.8,6.4-1.8C1660.3-473.9,1662.5-473.2,1664.2-471.8z"/>
		<path class="st1" d="M1694.8-468.2v5.6h-17.5v-5.6H1694.8z"/>
	</g>
</g>
</svg>
