<?xml version="1.0" encoding="utf-8"?>
<!-- Generator: Adobe Illustrator 24.0.0, SVG Export Plug-In . SVG Version: 6.00 Build 0)  -->
<svg version="1.1" id="Layer_1" xmlns="http://www.w3.org/2000/svg" xmlns:xlink="http://www.w3.org/1999/xlink" x="0px" y="0px"
	 viewBox="0 0 227 71" style="enable-background:new 0 0 227 71;" xml:space="preserve">
<style type="text/css">
	.st0{enable-background:new    ;}
	.st1{fill:#FFFFFF;}
</style>
<g transform="translate(-1539 585)">
	<g class="st0">
		<path class="st1" d="M1707.6-550c0-5.5,1.1-9.9,3.4-13.1c2.2-3.2,5.8-4.8,10.7-4.8c4.9,0,8.4,1.6,10.7,4.8s3.4,7.6,3.4,13.1
			c0,5.5-1.1,9.9-3.4,13.1c-2.3,3.2-5.8,4.9-10.7,4.9c-4.9,0-8.5-1.6-10.7-4.9C1708.7-540.1,1707.6-544.5,1707.6-550z M1727.2-550
			c0-3.2-0.4-5.6-1.1-7.3c-0.8-1.7-2.2-2.5-4.4-2.5c-2.2,0-3.7,0.8-4.5,2.5c-0.8,1.7-1.2,4.1-1.2,7.3c0,3.2,0.4,5.6,1.2,7.3
			c0.8,1.7,2.3,2.6,4.5,2.6c2.2,0,3.7-0.9,4.4-2.6S1727.2-546.9,1727.2-550z"/>
		<path class="st1" d="M1755.3-556.8c0-2.7-1.2-4.1-3.5-4.1c-1.3,0-2.3,0.5-2.9,1.4c-0.6,0.9-1,2.4-1,4.3h-8.4
			c0.2-4.3,1.5-7.5,3.9-9.7c2.4-2.2,5.4-3.3,9.1-3.3c3.8,0,6.7,1,8.7,2.9c1.9,1.9,2.9,4.5,2.9,7.5c0,3.4-1.3,6.8-4,10.1
			s-5.8,6.1-9.4,8.3h13.9v6.9h-25.2v-6.4C1750-546.4,1755.3-552.4,1755.3-556.8z"/>
	</g>
	<g class="st0">
		<path class="st1" d="M1558.9-540.2h-10.6l-1.8,5.2h-7.2l10.4-28.1h7.9l10.4,28.1h-7.3L1558.9-540.2z M1557.1-545.4l-3.5-10.4
			l-3.6,10.4H1557.1z"/>
		<path class="st1" d="M1589.4-556.2c1.5,0.9,2.6,2.2,3.4,4c0.8,1.7,1.3,3.8,1.3,6.1c0,2.3-0.4,4.3-1.3,6.1c-0.8,1.7-2,3.1-3.4,4
			c-1.5,0.9-3.1,1.4-4.9,1.4c-1.7,0-3.2-0.4-4.4-1.2s-2.1-1.8-2.7-3.2v4h-6.8v-29.6h6.8v11.3c0.6-1.3,1.5-2.4,2.7-3.2
			c1.2-0.8,2.7-1.2,4.4-1.2C1586.3-557.6,1588-557.1,1589.4-556.2z M1578.7-550.1c-0.9,1-1.4,2.3-1.4,4c0,1.7,0.5,3,1.4,4
			c0.9,1,2.1,1.5,3.5,1.5c1.5,0,2.6-0.5,3.5-1.4c0.9-1,1.3-2.3,1.3-4c0-1.7-0.4-3-1.3-4c-0.9-1-2.1-1.4-3.5-1.4
			C1580.8-551.6,1579.7-551.1,1578.7-550.1z"/>
		<path class="st1" d="M1614.1-556.2c1.7,0.9,3.1,2.2,4.1,4c1,1.7,1.5,3.8,1.5,6.1s-0.5,4.3-1.5,6.1s-2.4,3.1-4.1,4
			c-1.7,0.9-3.7,1.4-5.9,1.4s-4.2-0.5-6-1.4c-1.8-0.9-3.1-2.2-4.1-4s-1.5-3.8-1.5-6.1s0.5-4.3,1.5-6.1c1-1.7,2.4-3.1,4.1-4
			c1.8-0.9,3.7-1.4,6-1.4S1612.3-557.1,1614.1-556.2z M1604.8-550.3c-0.9,0.9-1.3,2.3-1.3,4.1c0,1.8,0.4,3.1,1.3,4.1
			c0.9,0.9,2,1.4,3.3,1.4s2.4-0.5,3.3-1.4c0.9-0.9,1.3-2.3,1.3-4.1c0-1.8-0.4-3.2-1.3-4.1s-2-1.4-3.3-1.4S1605.7-551.2,1604.8-550.3
			z"/>
		<path class="st1" d="M1645.4-557.3v22.3h-6.9v-4c-0.6,1.3-1.6,2.3-2.9,3.1s-2.7,1.2-4.4,1.2c-2.6,0-4.6-0.9-6.1-2.6
			c-1.5-1.7-2.3-4.1-2.3-7v-13h6.8v12.1c0,1.5,0.4,2.7,1.2,3.5c0.8,0.8,1.8,1.3,3.2,1.3c1.4,0,2.5-0.4,3.3-1.3s1.2-2.1,1.2-3.8
			v-11.8H1645.4z"/>
		<path class="st1" d="M1662.8-540.9v5.9h-3.1c-2.6,0-4.6-0.6-6.1-1.9c-1.5-1.3-2.2-3.4-2.2-6.4v-8.2h-3v-5.8h3v-5.5h6.8v5.5h4.5
			v5.8h-4.5v8.3c0,0.9,0.2,1.5,0.5,1.8c0.4,0.3,1,0.5,1.8,0.5H1662.8z"/>
		<path class="st1" d="M1690.2-551.9v5.7h-17.6v-5.7H1690.2z"/>
	</g>
</g>
</svg>
